<svg width="1224" height="63" viewBox="0 0 1224 63" fill="none" xmlns="http://www.w3.org/2000/svg">
<path d="M38.8 62.105C32.34 62.105 26.7017 61.595 21.885 60.575C17.0683 59.555 13.3567 58.3367 10.75 56.92C8.14333 55.4467 6.04667 53.69 4.46 51.65C2.93 49.61 1.93833 47.7683 1.485 46.125C1.08833 44.425 0.89 42.64 0.89 40.77V39.92H22.055C22.2817 43.15 23.7267 45.53 26.39 47.06C29.11 48.59 33.4733 49.355 39.48 49.355H44.155C47.1583 49.355 49.9917 49.185 52.655 48.845C55.3183 48.505 57.245 48.0233 58.435 47.4C59.6817 46.72 60.5033 46.0683 60.9 45.445C61.3533 44.765 61.58 43.9717 61.58 43.065C61.58 41.7617 61.2117 40.7417 60.475 40.005C59.795 39.2683 58.18 38.6167 55.63 38.05C53.08 37.4833 49.3967 37.1433 44.58 37.03L38.205 36.945L33.36 36.775C12.28 36.265 1.74 30.4567 1.74 19.35V18.67C1.74 16.7433 1.995 14.9867 2.505 13.4C3.07167 11.7567 4.12 10.1133 5.65 8.47C7.23667 6.82666 9.27667 5.46667 11.77 4.39C14.32 3.25666 17.7483 2.32166 22.055 1.58499C26.3617 0.848331 31.3767 0.479999 37.1 0.479999H43.05C49 0.479999 54.2417 0.876666 58.775 1.67C63.3083 2.40666 66.9067 3.37 69.57 4.56C72.29 5.69333 74.5 7.11 76.2 8.81C77.9567 10.51 79.1467 12.21 79.77 13.91C80.3933 15.61 80.705 17.395 80.705 19.265V20.115H59.625C59.5117 19.435 59.3417 18.8967 59.115 18.5C58.945 18.0467 58.4633 17.4517 57.67 16.715C56.9333 15.9217 55.9417 15.2983 54.695 14.845C53.505 14.335 51.6917 13.91 49.255 13.57C46.875 13.1733 44.41 12.975 41.86 12.975H38.8C34.38 12.975 30.8667 13.2583 28.26 13.825C25.6533 14.3917 24.0667 14.9867 23.5 15.61C22.9333 16.1767 22.65 16.9983 22.65 18.075C22.65 19.095 22.9617 19.945 23.585 20.625C24.2083 21.2483 25.6533 21.8433 27.92 22.41C30.2433 22.92 33.5017 23.175 37.695 23.175L42.455 23.26L48.575 23.345C60.645 23.5717 69.3717 25.1017 74.755 27.935C80.1383 30.7117 82.83 35.075 82.83 41.025V42.13C82.83 44.34 82.5467 46.3233 81.98 48.08C81.47 49.78 80.3933 51.5367 78.75 53.35C77.1633 55.1633 75.01 56.6933 72.29 57.94C69.6267 59.13 65.9433 60.1217 61.24 60.915C56.5367 61.7083 51.0683 62.105 44.835 62.105H38.8ZM114.386 61V15.61H86.5063V1.58499H162.836V15.61H134.871V61H114.386ZM231.682 1.16H251.912V29.805C251.912 32.2417 251.6 34.735 250.977 37.285C250.41 39.835 249.22 42.5833 247.407 45.53C245.65 48.42 243.355 50.9983 240.522 53.265C237.745 55.475 233.92 57.3167 229.047 58.79C224.173 60.2633 218.592 61 212.302 61H209.157C204.34 61 199.948 60.6317 195.982 59.895C192.015 59.1017 188.672 58.0817 185.952 56.835C183.232 55.5317 180.823 54.0017 178.727 52.245C176.687 50.4317 175.043 48.59 173.797 46.72C172.607 44.85 171.615 42.8667 170.822 40.77C170.028 38.6733 169.49 36.7467 169.207 34.99C168.98 33.2333 168.867 31.505 168.867 29.805V1.16H189.182V28.615C189.182 30.7683 189.465 32.7517 190.032 34.565C190.655 36.3783 191.675 38.1917 193.092 40.005C194.565 41.7617 196.803 43.15 199.807 44.17C202.81 45.19 206.38 45.7 210.517 45.7C214.653 45.7 218.167 45.19 221.057 44.17C224.003 43.15 226.213 41.7617 227.687 40.005C229.16 38.1917 230.18 36.3783 230.747 34.565C231.37 32.7517 231.682 30.7683 231.682 28.615V1.16ZM262.084 1.33H305.179C311.243 1.33 316.711 1.69833 321.584 2.435C326.458 3.17166 330.509 4.24833 333.739 5.665C337.026 7.08166 339.831 8.66833 342.154 10.425C344.534 12.1817 346.319 14.165 347.509 16.375C348.756 18.5283 349.634 20.6533 350.144 22.75C350.711 24.8467 350.994 27.1133 350.994 29.55V31.93C350.994 34.7633 350.654 37.4267 349.974 39.92C349.294 42.4133 347.906 44.9917 345.809 47.655C343.769 50.3183 341.106 52.585 337.819 54.455C334.589 56.325 330.169 57.8833 324.559 59.13C318.949 60.32 312.518 60.915 305.264 60.915H262.084V1.33ZM282.399 15.44V46.635H303.564C320.961 46.635 329.659 41.5067 329.659 31.25V30.74C329.659 20.54 320.961 15.44 303.564 15.44H282.399ZM378.767 1.58499V60.915H358.537V1.58499H378.767ZM432.098 0.479999H434.903C440.513 0.479999 445.613 0.848331 450.203 1.58499C454.793 2.32166 458.647 3.285 461.763 4.475C464.88 5.60833 467.6 7.025 469.923 8.725C472.247 10.425 474.06 12.1533 475.363 13.91C476.667 15.61 477.715 17.48 478.508 19.52C479.358 21.5033 479.897 23.2883 480.123 24.875C480.35 26.4617 480.463 28.1333 480.463 29.89V32.355C480.463 34.055 480.35 35.6983 480.123 37.285C479.897 38.8717 479.358 40.7133 478.508 42.81C477.715 44.85 476.667 46.7483 475.363 48.505C474.117 50.205 472.303 51.9333 469.923 53.69C467.6 55.39 464.88 56.835 461.763 58.025C458.703 59.215 454.85 60.2067 450.203 61C445.613 61.7367 440.513 62.105 434.903 62.105H432.098C426.488 62.105 421.36 61.7367 416.713 61C412.067 60.2067 408.185 59.215 405.068 58.025C402.008 56.835 399.288 55.39 396.908 53.69C394.585 51.9333 392.772 50.205 391.468 48.505C390.165 46.7483 389.117 44.85 388.323 42.81C387.53 40.7133 387.02 38.8717 386.793 37.285C386.567 35.6983 386.453 34.055 386.453 32.355V29.89C386.453 28.1333 386.567 26.49 386.793 24.96C387.02 23.3733 387.53 21.56 388.323 19.52C389.117 17.48 390.165 15.61 391.468 13.91C392.772 12.1533 394.585 10.425 396.908 8.725C399.232 7.025 401.952 5.60833 405.068 4.475C408.185 3.285 412.067 2.32166 416.713 1.58499C421.36 0.848331 426.488 0.479999 432.098 0.479999ZM459.213 31.59V30.485C459.213 29.0117 458.987 27.6233 458.533 26.32C458.137 24.96 457.343 23.5717 456.153 22.155C455.02 20.6817 453.518 19.435 451.648 18.415C449.835 17.395 447.313 16.545 444.083 15.865C441.477 15.355 438.502 15.0433 435.158 14.93C434.195 14.93 433.288 14.93 432.438 14.93C415.948 15.2133 407.703 20.3983 407.703 30.485V31.42C407.703 33.3467 408.072 35.16 408.808 36.86C409.545 38.56 410.763 40.2883 412.463 42.045C414.22 43.745 416.94 45.0767 420.623 46.04C424.023 47.0033 428.075 47.5133 432.778 47.57C433.402 47.57 434.082 47.57 434.818 47.57C439.182 47.4567 442.95 46.975 446.123 46.125C449.807 45.1617 452.527 43.83 454.283 42.13C456.097 40.43 457.372 38.73 458.108 37.03C458.845 35.33 459.213 33.5167 459.213 31.59ZM595.651 31.42C598.994 32.3833 601.686 33.97 603.726 36.18C605.766 38.39 606.786 41.28 606.786 44.85V61H588.341V50.545C588.341 46.9183 587.406 44.3117 585.536 42.725C583.723 41.0817 580.578 40.26 576.101 40.26H552.131V61H533.686V2.52H581.116C598.116 2.52 606.616 7.56333 606.616 17.65V18.585C606.616 24.7617 602.961 29.04 595.651 31.42ZM587.406 21.56V21.475C587.406 19.775 586.783 18.415 585.536 17.395C584.346 16.3183 582.504 15.78 580.011 15.78H552.131V27.255H580.011C582.504 27.255 584.346 26.745 585.536 25.725C586.783 24.6483 587.406 23.26 587.406 21.56ZM615.864 1.33H684.374V14.845H635.924V23.685H683.184V37.285H635.924V47.06H685.224V60.915H615.864V1.33ZM736.553 62.02H734.683C727.996 62.02 722.046 61.3683 716.833 60.065C711.62 58.705 707.455 57.005 704.338 54.965C701.221 52.8683 698.671 50.46 696.688 47.74C694.761 45.02 693.43 42.4133 692.693 39.92C691.956 37.37 691.588 34.7917 691.588 32.185V29.89C691.588 27.2833 691.871 24.79 692.438 22.41C693.061 19.9733 694.336 17.395 696.263 14.675C698.246 11.8983 700.768 9.51833 703.828 7.535C706.888 5.55166 711.138 3.90833 716.578 2.605C722.018 1.245 728.308 0.564998 735.448 0.564998H739.188C746.045 0.564998 752.108 1.10333 757.378 2.18C762.705 3.25666 766.841 4.58833 769.788 6.175C772.791 7.705 775.228 9.54666 777.098 11.7C779.025 13.8533 780.3 15.8367 780.923 17.65C781.603 19.4067 781.971 21.22 782.028 23.09V23.175H760.438C758.285 17.5083 750.606 14.675 737.403 14.675C721.026 14.675 712.838 20.03 712.838 30.74V31.59C712.838 35.9533 714.85 39.7217 718.873 42.895C722.896 46.0117 729.016 47.57 737.233 47.57C740.86 47.57 744.175 47.3433 747.178 46.89C750.181 46.38 752.561 45.785 754.318 45.105C756.131 44.3683 757.661 43.6033 758.908 42.81C760.155 41.96 761.033 41.2233 761.543 40.6C762.053 39.9767 762.308 39.4667 762.308 39.07V38.9H736.893V27.68H782.453V60.915H767.833C767.776 57.4017 767.72 54.3417 767.663 51.735C761.203 58.5917 750.833 62.02 736.553 62.02ZM791.674 1.33H860.184V14.845H811.734V23.685H858.994V37.285H811.734V47.06H861.034V60.915H791.674V1.33ZM870.034 1.58499H892.729L934.124 38.985V1.58499H954.099V61H934.124L890.094 21.645V61H870.034V1.58499ZM1021.02 2.095L1052.56 60.915H1032.67L1027.06 50.205H984.728L979.118 60.915H959.228L990.848 2.095H1021.02ZM991.528 36.86H1020.26L1009.04 15.27H1002.75L991.528 36.86ZM1057.47 1.33H1100.56C1106.62 1.33 1112.09 1.69833 1116.97 2.435C1121.84 3.17166 1125.89 4.24833 1129.12 5.665C1132.41 7.08166 1135.21 8.66833 1137.54 10.425C1139.92 12.1817 1141.7 14.165 1142.89 16.375C1144.14 18.5283 1145.02 20.6533 1145.53 22.75C1146.09 24.8467 1146.38 27.1133 1146.38 29.55V31.93C1146.38 34.7633 1146.04 37.4267 1145.36 39.92C1144.68 42.4133 1143.29 44.9917 1141.19 47.655C1139.15 50.3183 1136.49 52.585 1133.2 54.455C1129.97 56.325 1125.55 57.8833 1119.94 59.13C1114.33 60.32 1107.9 60.915 1100.65 60.915H1057.47V1.33ZM1077.78 15.44V46.635H1098.95C1116.34 46.635 1125.04 41.5067 1125.04 31.25V30.74C1125.04 20.54 1116.34 15.44 1098.95 15.44H1077.78ZM1154 1.33H1222.51V14.845H1174.06V23.685H1221.32V37.285H1174.06V47.06H1223.36V60.915H1154V1.33Z" fill="white"/>
</svg>
