<svg width="1039" height="224" viewBox="0 0 1039 224" fill="none" xmlns="http://www.w3.org/2000/svg">
<path d="M180.44 93.664C170.712 93.664 162.221 92.896 154.968 91.36C147.715 89.824 142.125 87.9893 138.2 85.856C134.275 83.6373 131.117 80.992 128.728 77.92C126.424 74.848 124.931 72.0747 124.248 69.6C123.651 67.04 123.352 64.352 123.352 61.536V60.256H155.224C155.565 65.12 157.741 68.704 161.752 71.008C165.848 73.312 172.419 74.464 181.464 74.464H188.504C193.027 74.464 197.293 74.208 201.304 73.696C205.315 73.184 208.216 72.4587 210.008 71.52C211.885 70.496 213.123 69.5147 213.72 68.576C214.403 67.552 214.744 66.3573 214.744 64.992C214.744 63.0293 214.189 61.4933 213.08 60.384C212.056 59.2747 209.624 58.2933 205.784 57.44C201.944 56.5867 196.397 56.0747 189.144 55.904L179.544 55.776L172.248 55.52C140.504 54.752 124.632 46.0053 124.632 29.28V28.256C124.632 25.3547 125.016 22.7093 125.784 20.32C126.637 17.8453 128.216 15.3707 130.52 12.896C132.909 10.4213 135.981 8.37333 139.736 6.752C143.576 5.04533 148.739 3.63733 155.224 2.52799C161.709 1.41866 169.261 0.863998 177.88 0.863998H186.84C195.8 0.863998 203.693 1.46133 210.52 2.656C217.347 3.76533 222.765 5.21599 226.776 7.008C230.872 8.71466 234.2 10.848 236.76 13.408C239.405 15.968 241.197 18.528 242.136 21.088C243.075 23.648 243.544 26.336 243.544 29.152V30.432H211.8C211.629 29.408 211.373 28.5973 211.032 28C210.776 27.3173 210.051 26.4213 208.856 25.312C207.747 24.1173 206.253 23.1787 204.376 22.496C202.584 21.728 199.853 21.088 196.184 20.576C192.6 19.9787 188.888 19.68 185.048 19.68H180.44C173.784 19.68 168.493 20.1067 164.568 20.96C160.643 21.8133 158.253 22.7093 157.4 23.648C156.547 24.5013 156.12 25.7387 156.12 27.36C156.12 28.896 156.589 30.176 157.528 31.2C158.467 32.1387 160.643 33.0347 164.056 33.888C167.555 34.656 172.461 35.04 178.776 35.04L185.944 35.168L195.16 35.296C213.336 35.6373 226.477 37.9413 234.584 42.208C242.691 46.3893 246.744 52.96 246.744 61.92V63.584C246.744 66.912 246.317 69.8987 245.464 72.544C244.696 75.104 243.075 77.7493 240.6 80.48C238.211 83.2107 234.968 85.5147 230.872 87.392C226.861 89.184 221.315 90.6773 214.232 91.872C207.149 93.0667 198.915 93.664 189.528 93.664H180.44ZM294.264 92V23.648H252.28V2.52799H367.224V23.648H325.112V92H294.264ZM470.897 1.88799H501.361V45.024C501.361 48.6933 500.892 52.448 499.953 56.288C499.1 60.128 497.308 64.2667 494.577 68.704C491.932 73.056 488.476 76.9387 484.209 80.352C480.028 83.68 474.268 86.4533 466.929 88.672C459.59 90.8907 451.185 92 441.713 92H436.977C429.724 92 423.11 91.4453 417.137 90.336C411.164 89.1413 406.129 87.6053 402.033 85.728C397.937 83.7653 394.31 81.4613 391.153 78.816C388.081 76.0853 385.606 73.312 383.729 70.496C381.937 67.68 380.444 64.6933 379.249 61.536C378.054 58.3787 377.244 55.4773 376.817 52.832C376.476 50.1867 376.305 47.584 376.305 45.024V1.88799H406.897V43.232C406.897 46.4747 407.324 49.4613 408.177 52.192C409.116 54.9227 410.652 57.6533 412.785 60.384C415.004 63.0293 418.374 65.12 422.897 66.656C427.42 68.192 432.796 68.96 439.025 68.96C445.254 68.96 450.545 68.192 454.897 66.656C459.334 65.12 462.662 63.0293 464.881 60.384C467.1 57.6533 468.636 54.9227 469.489 52.192C470.428 49.4613 470.897 46.4747 470.897 43.232V1.88799ZM516.68 2.144H581.576C590.707 2.144 598.941 2.69866 606.28 3.808C613.619 4.91733 619.72 6.53866 624.584 8.672C629.533 10.8053 633.757 13.1947 637.256 15.84C640.84 18.4853 643.528 21.472 645.32 24.8C647.197 28.0427 648.52 31.2427 649.288 34.4C650.141 37.5573 650.568 40.9707 650.568 44.64V48.224C650.568 52.4907 650.056 56.5013 649.032 60.256C648.008 64.0107 645.917 67.8933 642.76 71.904C639.688 75.9147 635.677 79.328 630.728 82.144C625.864 84.96 619.208 87.3067 610.76 89.184C602.312 90.976 592.627 91.872 581.704 91.872H516.68V2.144ZM547.272 23.392V70.368H579.144C605.341 70.368 618.44 62.6453 618.44 47.2V46.432C618.44 31.072 605.341 23.392 579.144 23.392H547.272ZM692.391 2.52799V91.872H661.927V2.52799H692.391ZM772.701 0.863998H776.925C785.373 0.863998 793.053 1.41866 799.965 2.52799C806.877 3.63733 812.68 5.08799 817.373 6.88C822.066 8.58666 826.162 10.72 829.661 13.28C833.16 15.84 835.89 18.4427 837.853 21.088C839.816 23.648 841.394 26.464 842.589 29.536C843.869 32.5227 844.68 35.2107 845.021 37.6C845.362 39.9893 845.533 42.5067 845.533 45.152V48.864C845.533 51.424 845.362 53.8987 845.021 56.288C844.68 58.6773 843.869 61.4507 842.589 64.608C841.394 67.68 839.816 70.5387 837.853 73.184C835.976 75.744 833.245 78.3467 829.661 80.992C826.162 83.552 822.066 85.728 817.373 87.52C812.765 89.312 806.962 90.8053 799.965 92C793.053 93.1093 785.373 93.664 776.925 93.664H772.701C764.253 93.664 756.53 93.1093 749.533 92C742.536 90.8053 736.69 89.312 731.997 87.52C727.389 85.728 723.293 83.552 719.709 80.992C716.21 78.3467 713.48 75.744 711.517 73.184C709.554 70.5387 707.976 67.68 706.781 64.608C705.586 61.4507 704.818 58.6773 704.477 56.288C704.136 53.8987 703.965 51.424 703.965 48.864V45.152C703.965 42.5067 704.136 40.032 704.477 37.728C704.818 35.3387 705.586 32.608 706.781 29.536C707.976 26.464 709.554 23.648 711.517 21.088C713.48 18.4427 716.21 15.84 719.709 13.28C723.208 10.72 727.304 8.58666 731.997 6.88C736.69 5.08799 742.536 3.63733 749.533 2.52799C756.53 1.41866 764.253 0.863998 772.701 0.863998ZM813.533 47.712V46.048C813.533 43.8293 813.192 41.7387 812.509 39.776C811.912 37.728 810.717 35.6373 808.925 33.504C807.218 31.2853 804.957 29.408 802.141 27.872C799.41 26.336 795.613 25.056 790.749 24.032C786.824 23.264 782.344 22.7947 777.309 22.624C775.858 22.624 774.493 22.624 773.213 22.624C748.381 23.0507 735.965 30.8587 735.965 46.048V47.456C735.965 50.3573 736.52 53.088 737.629 55.648C738.738 58.208 740.573 60.8107 743.133 63.456C745.778 66.016 749.874 68.0213 755.421 69.472C760.541 70.9227 766.642 71.6907 773.725 71.776C774.664 71.776 775.688 71.776 776.797 71.776C783.368 71.6053 789.042 70.88 793.821 69.6C799.368 68.1493 803.464 66.144 806.109 63.584C808.84 61.024 810.76 58.464 811.869 55.904C812.978 53.344 813.533 50.6133 813.533 47.712ZM93.4295 177.456C98.4642 178.907 102.518 181.296 105.59 184.624C108.662 187.952 110.198 192.304 110.198 197.68V222H82.4215V206.256C82.4215 200.795 81.0135 196.869 78.1975 194.48C75.4668 192.005 70.7308 190.768 63.9895 190.768H27.8935V222H0.1175V133.936H71.5415C97.1415 133.936 109.942 141.531 109.942 156.72V158.128C109.942 167.429 104.438 173.872 93.4295 177.456ZM81.0135 162.608V162.48C81.0135 159.92 80.0748 157.872 78.1975 156.336C76.4055 154.715 73.6322 153.904 69.8775 153.904H27.8935V171.184H69.8775C73.6322 171.184 76.4055 170.416 78.1975 168.88C80.0748 167.259 81.0135 165.168 81.0135 162.608ZM123.868 132.144H227.036V152.496H154.076V165.808H225.244V186.288H154.076V201.008H228.316V221.872H123.868V132.144ZM305.612 223.536H302.796C292.726 223.536 283.766 222.555 275.916 220.592C268.065 218.544 261.793 215.984 257.1 212.912C252.406 209.755 248.566 206.128 245.58 202.032C242.678 197.936 240.673 194.011 239.564 190.256C238.454 186.416 237.9 182.533 237.9 178.608V175.152C237.9 171.227 238.326 167.472 239.18 163.888C240.118 160.219 242.038 156.336 244.94 152.24C247.926 148.059 251.724 144.475 256.332 141.488C260.94 138.501 267.34 136.027 275.532 134.064C283.724 132.016 293.196 130.992 303.948 130.992H309.58C319.905 130.992 329.036 131.803 336.972 133.424C344.993 135.045 351.222 137.051 355.66 139.44C360.182 141.744 363.852 144.517 366.668 147.76C369.569 151.003 371.489 153.989 372.428 156.72C373.452 159.365 374.006 162.096 374.092 164.912V165.04H341.58C338.337 156.507 326.774 152.24 306.892 152.24C282.23 152.24 269.9 160.304 269.9 176.432V177.712C269.9 184.283 272.929 189.957 278.988 194.736C285.046 199.429 294.262 201.776 306.636 201.776C312.097 201.776 317.089 201.435 321.612 200.752C326.134 199.984 329.718 199.088 332.364 198.064C335.094 196.955 337.398 195.803 339.276 194.608C341.153 193.328 342.476 192.219 343.244 191.28C344.012 190.341 344.396 189.573 344.396 188.976V188.72H306.124V171.824H374.732V221.872H352.716C352.63 216.581 352.545 211.973 352.46 208.048C342.732 218.373 327.116 223.536 305.612 223.536ZM388.618 132.144H491.786V152.496H418.826V165.808H489.994V186.288H418.826V201.008H493.066V221.872H388.618V132.144ZM506.618 132.528H540.794L603.13 188.848V132.528H633.21V222H603.13L536.826 162.736V222H506.618V132.528ZM733.991 133.296L781.479 221.872H751.527L743.079 205.744H679.335L670.887 221.872H640.934L688.551 133.296H733.991ZM689.575 185.648H732.839L715.943 153.136H706.471L689.575 185.648ZM788.868 132.144H853.764C862.894 132.144 871.129 132.699 878.468 133.808C885.806 134.917 891.908 136.539 896.772 138.672C901.721 140.805 905.945 143.195 909.444 145.84C913.028 148.485 915.716 151.472 917.508 154.8C919.385 158.043 920.708 161.243 921.476 164.4C922.329 167.557 922.756 170.971 922.756 174.64V178.224C922.756 182.491 922.244 186.501 921.22 190.256C920.196 194.011 918.105 197.893 914.948 201.904C911.876 205.915 907.865 209.328 902.916 212.144C898.052 214.96 891.396 217.307 882.948 219.184C874.5 220.976 864.814 221.872 853.892 221.872H788.868V132.144ZM819.46 153.392V200.368H851.332C877.529 200.368 890.628 192.645 890.628 177.2V176.432C890.628 161.072 877.529 153.392 851.332 153.392H819.46ZM934.243 132.144H1037.41V152.496H964.451V165.808H1035.62V186.288H964.451V201.008H1038.69V221.872H934.243V132.144Z" fill="white"/>
</svg>
